<svg width="144" height="144" viewBox="0 0 144 144" fill="none" xmlns="http://www.w3.org/2000/svg">
<g filter="url(#filter0_i_4094_145)">
<path fill-rule="evenodd" clip-rule="evenodd" d="M63.3317 5.8286C74.9836 -2.82158 95.0734 25.029 95.1705 25.1639C95.1705 25.1639 107.496 19.7133 114.626 22.5307C126.816 27.3483 121.45 55.3948 121.45 55.3948C121.526 55.4094 133.715 57.7525 137.991 63.5119C146.641 75.1632 118.794 95.2515 118.656 95.3508C118.656 95.3508 124.106 107.676 121.289 114.807C116.471 126.996 88.425 121.63 88.425 121.63C88.4104 121.706 86.0672 133.895 80.3078 138.171C68.6574 146.82 48.5714 118.978 48.4689 118.836C48.4689 118.836 36.1433 124.287 29.0131 121.469C16.8235 116.652 22.1897 88.6052 22.1897 88.6052C22.1184 88.5916 9.92523 86.2487 5.64834 80.4881C-3.00127 68.837 24.8447 48.7493 24.9836 48.6492C24.9836 48.6492 19.533 36.3236 22.3505 29.1934C27.168 17.0037 55.2145 22.3699 55.2145 22.3699C55.2283 22.298 57.5712 10.1054 63.3317 5.8286ZM75.349 21.5292C75.3436 21.555 70.0324 46.7384 58.5426 56.7264C47.0533 66.7139 21.3775 68.4688 21.349 68.4707C21.3806 68.4774 46.5593 73.7887 56.5461 85.2772C66.5391 96.7729 68.2905 122.471 68.2905 122.471C68.2905 122.471 73.6012 97.2667 85.0969 87.2736C96.5926 77.2806 122.291 75.5293 122.291 75.5293C122.291 75.5293 97.0865 70.2185 87.0934 58.7228C77.1063 47.234 75.3511 21.56 75.349 21.5292Z" fill="url(#paint0_radial_4094_145)"/>
</g>
<defs>
<filter id="filter0_i_4094_145" x="3.98267" y="4.16293" width="135.674" height="138.366" filterUnits="userSpaceOnUse" color-interpolation-filters="sRGB">
<feFlood flood-opacity="0" result="BackgroundImageFix"/>
<feBlend mode="normal" in="SourceGraphic" in2="BackgroundImageFix" result="shape"/>
<feColorMatrix in="SourceAlpha" type="matrix" values="0 0 0 0 0 0 0 0 0 0 0 0 0 0 0 0 0 0 127 0" result="hardAlpha"/>
<feOffset dy="2.69159"/>
<feGaussianBlur stdDeviation="4.03738"/>
<feComposite in2="hardAlpha" operator="arithmetic" k2="-1" k3="1"/>
<feColorMatrix type="matrix" values="0 0 0 0 0.530769 0 0 0 0 0.120192 0 0 0 0 1 0 0 0 1 0"/>
<feBlend mode="normal" in2="shape" result="effect1_innerShadow_4094_145"/>
</filter>
<radialGradient id="paint0_radial_4094_145" cx="0" cy="0" r="1" gradientUnits="userSpaceOnUse" gradientTransform="translate(71.8198 72) rotate(94) scale(67.4587 67.4587)">
<stop offset="0.4375" stop-color="#0FE3EF"/>
<stop offset="1" stop-color="#438BFF"/>
</radialGradient>
</defs>
</svg>
