<svg width="40" height="40" viewBox="0 0 40 40" fill="none" xmlns="http://www.w3.org/2000/svg">
<path d="M21.5 5.25V10.25C21.5 10.5815 21.3683 10.8995 21.1339 11.1339C20.8995 11.3683 20.5815 11.5 20.25 11.5C19.9185 11.5 19.6005 11.3683 19.3661 11.1339C19.1317 10.8995 19 10.5815 19 10.25V5.25C19 4.91848 19.1317 4.60054 19.3661 4.36612C19.6005 4.1317 19.9185 4 20.25 4C20.5815 4 20.8995 4.1317 21.1339 4.36612C21.3683 4.60054 21.5 4.91848 21.5 5.25ZM35.25 19H30.25C29.9185 19 29.6005 19.1317 29.3661 19.3661C29.1317 19.6005 29 19.9185 29 20.25C29 20.5815 29.1317 20.8995 29.3661 21.1339C29.6005 21.3683 29.9185 21.5 30.25 21.5H35.25C35.5815 21.5 35.8995 21.3683 36.1339 21.1339C36.3683 20.8995 36.5 20.5815 36.5 20.25C36.5 19.9185 36.3683 19.6005 36.1339 19.3661C35.8995 19.1317 35.5815 19 35.25 19ZM28.2047 26.4375C27.9684 26.213 27.6537 26.0897 27.3277 26.0938C27.0018 26.098 26.6903 26.2293 26.4598 26.4598C26.2293 26.6903 26.098 27.0018 26.0938 27.3277C26.0897 27.6537 26.213 27.9684 26.4375 28.2047L29.9719 31.7406C30.2064 31.9752 30.5245 32.1069 30.8563 32.1069C31.188 32.1069 31.5061 31.9752 31.7406 31.7406C31.9752 31.5061 32.1069 31.188 32.1069 30.8563C32.1069 30.5245 31.9752 30.2064 31.7406 29.9719L28.2047 26.4375ZM20.25 29C19.9185 29 19.6005 29.1317 19.3661 29.3661C19.1317 29.6005 19 29.9185 19 30.25V35.25C19 35.5815 19.1317 35.8995 19.3661 36.1339C19.6005 36.3683 19.9185 36.5 20.25 36.5C20.5815 36.5 20.8995 36.3683 21.1339 36.1339C21.3683 35.8995 21.5 35.5815 21.5 35.25V30.25C21.5 29.9185 21.3683 29.6005 21.1339 29.3661C20.8995 29.1317 20.5815 29 20.25 29ZM12.2953 26.4375L8.75937 29.9719C8.52482 30.2064 8.39305 30.5245 8.39305 30.8563C8.39305 31.188 8.52482 31.5061 8.75937 31.7406C8.99393 31.9752 9.31205 32.1069 9.64375 32.1069C9.97545 32.1069 10.2936 31.9752 10.5281 31.7406L14.0625 28.2047C14.287 27.9684 14.4103 27.6537 14.4062 27.3277C14.402 27.0018 14.2707 26.6903 14.0402 26.4598C13.8097 26.2293 13.4982 26.098 13.1723 26.0938C12.8463 26.0897 12.5316 26.213 12.2953 26.4375ZM11.5 20.25C11.5 19.9185 11.3683 19.6005 11.1339 19.3661C10.8995 19.1317 10.5815 19 10.25 19H5.25C4.91848 19 4.60054 19.1317 4.36612 19.3661C4.1317 19.6005 4 19.9185 4 20.25C4 20.5815 4.1317 20.8995 4.36612 21.1339C4.60054 21.3683 4.91848 21.5 5.25 21.5H10.25C10.5815 21.5 10.8995 21.3683 11.1339 21.1339C11.3683 20.8995 11.5 20.5815 11.5 20.25ZM10.5281 8.75937C10.2936 8.52482 9.97545 8.39305 9.64375 8.39305C9.31205 8.39305 8.99393 8.52482 8.75937 8.75937C8.52482 8.99393 8.39305 9.31205 8.39305 9.64375C8.39305 9.97545 8.52482 10.2936 8.75937 10.5281L12.2953 14.0625C12.5316 14.287 12.8463 14.4103 13.1723 14.4062C13.4982 14.402 13.8097 14.2707 14.0402 14.0402C14.2707 13.8097 14.402 13.4982 14.4062 13.1723C14.4103 12.8463 14.287 12.5316 14.0625 12.2953L10.5281 8.75937Z" fill="white"/>
</svg>
